<?xml version="1.0" encoding="UTF-8"?>
<svg width="1306px" height="46px" viewBox="0 0 1306 46" version="1.1" xmlns="http://www.w3.org/2000/svg" xmlns:xlink="http://www.w3.org/1999/xlink">
    <!-- Generator: Sketch 43.2 (39069) - http://www.bohemiancoding.com/sketch -->
    <title>bottom</title>
    <desc>Created with Sketch.</desc>
    <defs>
        <path d="M1300,0 L1300,34.34045 C1298.021,34.174537 1296.81,33.342324 1294.5,33.67944 C1292.427,33.982183 1290.102,35.88457 1286.5,35.00146 C1285.13701,34.666989 1285.555,33.982183 1283.5,33.67944 C1278.61101,37.923787 1265.713,37.277319 1256.99999,35.992977 C1251.679,35.208357 1249.204,37.774399 1245,36.984492 C1242.85599,36.581937 1242.23,34.780683 1240,35.331965 C1237.152,35.818469 1237.046,36.887984 1233,36.984492 C1232.62,36.674478 1228.857,34.427043 1228.5,34.34045 C1225.916,33.713812 1221.938,34.993528 1220,34.009945 C1219.23499,33.621932 1218.01801,31.908593 1217.5,31.365904 C1214.162,32.68528 1204.635,34.478602 1198.49999,33.348934 C1196.221,32.929193 1194.973,30.694318 1191.5,31.365904 L1179,32.357419 C1176.646,32.812855 1172.109,33.951777 1170,34.34045 C1167.5,34.120333 1165,33.899557 1162.5,33.67944 C1158.461,34.565194 1158.715,36.905832 1151.5,36.984492 C1149.303,34.995512 1147.427,36.041892 1143,35.331965 C1142.28717,35.196903 1124.86735,33.348934 1124.86735,33.348934 L1111.51993,35.10508 C1111.51993,35.10508 1097.63529,35.765284 1097,35.66247 C1094.544,35.265204 1092.979,33.392562 1091,33.01843 C1088.542,32.553739 1089.95,30.474862 1088.5,30.043883 C1086.834,29.933494 1085.166,29.823767 1083.5,29.713378 C1082.834,29.272484 1082.166,28.832252 1081.5,28.391357 C1079.392,28.011938 1079.076,29.150197 1078,29.382873 L1070.5,29.382873 C1069.287,29.628769 1068.176,30.66391 1066,30.374388 C1063.523,30.045205 1062.648,28.516949 1061,28.060853 C1058.5,28.17124 1056,28.280968 1053.5,28.391357 C1052.847,28.284934 1050.955,27.468587 1050.5,27.399842 C1048.004,27.023065 1044.029,28.36095 1042.5,28.721863 L1035.5,28.721863 C1032.116,29.383534 1027.419,29.439719 1024,30.043883 C1021,30.154272 1018,30.263999 1015,30.374388 C1012.924,30.909807 1009.666,32.309827 1007.5,32.687924 C1005.3878,33.056528 984.645566,34.009945 984.645566,34.009945 C984.645566,34.009945 961.85704,29.857365 960,30.043883 C955.363431,30.509824 950.223337,34.009945 950.223337,34.009945 C950.223337,34.009945 940.572932,34.275163 937,34.670955 C935.069284,34.884775 921.477689,32.357419 921.477689,32.357419 C921.477689,32.357419 906.058967,33.357327 903,34.009945 C900.205,34.606177 889.311,35.607607 885,35.66247 C884.918,35.58976 870.672001,29.747089 870.5,29.713378 C867.924,29.206383 860.849999,30.462303 857,30.043883 C855.256,29.854173 855.834,28.70137 853.5,29.052368 C853,29.382873 840,30.043883 840,30.043883 C835.857,32.438063 831.627,31.864305 828.999999,31.365904 L821,31.365904 C818.152001,30.769672 807.328,28.251223 805,30.704893 C803.825,31.714257 804.081,32.964227 803.5,33.67944 C799.3,32.60728 793.600999,35.191832 791.5,34.670955 C791.081037,34.567033 785.765046,34.941575 781.102732,34.34045 C776.440418,33.739325 773.972929,32.357419 773.972929,32.357419 C773.972929,32.357419 768.547377,33.214828 763.266422,34.00898 C758.714423,34.693513 754.269858,35.331048 753.5,35.331965 C749.615529,35.25392 738.9415,37.976008 738.9415,37.976008 C738.9415,37.976008 730.652695,37.863644 728,37.314997 C726.379,36.979864 726.316,35.560675 723.5,35.992977 C713.395263,36.502629 703.388708,36.413274 700,36.323482 C699.580605,36.43566 694.303328,36.663693 686.833907,36.920353 C683.895847,37.021309 680.618618,37.126693 677.164451,37.231199 C673.643632,37.337722 672.216673,39.73396 668.5,39.833033 C662.70055,39.987625 655.205259,37.12979 650,37.231199 C640.276841,37.420624 632.117973,38.185887 631,37.976008 C627.000001,36.874103 619.52066,39.943422 617.02066,39.833033 C614.589525,38.601829 606.288624,33.348934 606.288624,33.348934 L589.660326,35.315742 C589.660326,35.315742 581.953998,38.014912 579.049324,37.976008 C576.144651,37.937103 573.487546,35.138267 573,35.00146 C572.565964,34.879675 550.90245,35.37011 550.90245,35.37011 L535.177734,36.984492 C535.177734,36.984492 524.92625,32.319332 519.052909,30.76753 C513.027914,29.175662 502.134563,33.854834 493.987339,33.749657 C487.797526,33.669747 481.38916,39.906795 475.947266,39.833033 C470.505372,39.75927 449.069651,33.122835 448.5,33.01843 C444.334,32.90804 440.166,32.798313 436,32.687924 C435.049,32.500859 434.137,31.541072 433.5,31.365904 L425,31.365904 C423.456,32.663467 418.424,34.822327 416,35.331965 C414.514086,35.29916 396.860995,32.357419 396.860995,32.357419 C396.860995,32.357419 390.00176,37.186229 385.223912,37.170989 C380.756181,37.156737 373.000195,37.142487 363.666051,37.128234 C360.067898,37.12274 356.235236,37.117247 352.266022,37.111753 C346.574105,37.103873 334.636719,35.10508 334.636719,35.10508 C334.636719,35.10508 326.806941,33.111699 322.97905,33.106523 C321.754277,33.104867 320.538233,35.086242 319.333597,35.084585 C313.879393,35.077085 308.659043,33.747564 303.921191,33.740062 C291.171669,33.71987 279.061987,37.004718 278.145838,36.984492 C277.229689,36.964265 265.539,33.815608 262,32.687924 C259.459,31.878187 258.34,33.709847 256,33.348934 C252.661,32.834669 248.59,30.924349 244.5,30.704893 C242.69089,32.372698 233.15809,32.423442 223.41848,31.991745 C213.556232,31.554615 203.481932,30.62282 201,30.374388 C196.103,29.883919 192.704,33.527408 187,32.026914 C182.353,31.502733 179.567,34.107114 175,33.348934 C172.958,33.009837 171.719999,31.816713 170,31.365904 C168.655387,31.013613 150.409391,35.00146 150.409391,35.00146 C150.409391,35.00146 134.148738,30.449092 133.000001,30.043883 C132.333,29.602989 131.666999,29.162755 131,28.721863 L109,28.721863 C108.212,28.546034 107.289,27.575009 106.5,27.399842 C104.212,26.891525 100.708,26.925237 99,27.399842 C97.717,27.756127 95.279,29.064927 93.5,29.382873 C90.894,29.848885 89.9870001,28.827624 87.5,28.721863 C86.515,29.770225 85.223,30.496014 84,31.365904 C78.458,31.400937 73.294,30.957399 69,30.704893 C67.945,31.840509 67.311,32.295284 64.5,32.357419 C63.487,31.656748 63.029,31.48158 61,31.365904 C60.014,32.307183 59.494,32.362047 57,32.357419 C55.007,31.057212 53.357,32.020304 50,31.365904 C48.147,31.004993 42.788,28.063495 39.9999999,28.721863 C39.346,28.875878 37.982,29.952003 37,30.043883 C34.471,30.280525 33.179,27.686059 30,28.721863 C26.112,29.988358 23.286,32.458554 18,32.687924 C11.278,28.735083 5.213,33.376698 0,34.009945 L0,0" id="path-1"></path>
        <filter x="-0.4%" y="-8.8%" width="100.8%" height="127.6%" filterUnits="objectBoundingBox" id="filter-2">
            <feOffset dx="0" dy="2" in="SourceAlpha" result="shadowOffsetOuter1"></feOffset>
            <feGaussianBlur stdDeviation="1.5" in="shadowOffsetOuter1" result="shadowBlurOuter1"></feGaussianBlur>
            <feColorMatrix values="0 0 0 0 0   0 0 0 0 0   0 0 0 0 0  0 0 0 0.5 0" type="matrix" in="shadowBlurOuter1"></feColorMatrix>
        </filter>
    </defs>
    <g id="Page-1" stroke="none" stroke-width="1" fill="none" fill-rule="evenodd">
        <g id="rip" transform="translate(-174.000000, -384.000000)" fill-rule="nonzero">
            <g id="bottom" transform="translate(177.000000, 385.000000)">
                <g id="path-1" opacity="0.502321105">
                    <use fill="black" fill-opacity="1" filter="url(#filter-2)" xlink:href="#path-1"></use>
                    <use fill="#FFFFFF" fill-rule="evenodd" xlink:href="#path-1"></use>
                </g>
                <path d="M1300,0 L1300,34.34045 C1298.021,34.174537 1296.81,33.342324 1294.5,33.67944 C1292.427,33.982183 1290.102,35.88457 1286.5,35.00146 C1285.13701,34.666989 1285.555,33.982183 1283.5,33.67944 C1278.61101,37.923787 1265.713,37.277319 1256.99999,35.992977 C1251.679,35.208357 1249.204,37.774399 1245,36.984492 C1242.85599,36.581937 1242.23,34.780683 1240,35.331965 C1237.152,35.818469 1237.046,36.887984 1233,36.984492 C1232.62,36.674478 1228.857,34.427043 1228.5,34.34045 C1225.916,33.713812 1221.938,34.993528 1220,34.009945 C1219.23499,33.621932 1218.01801,31.908593 1217.5,31.365904 C1214.162,32.68528 1204.635,34.478602 1198.49999,33.348934 C1196.221,32.929193 1194.973,30.694318 1191.5,31.365904 L1179,32.357419 C1176.646,32.812855 1172.109,33.951777 1170,34.34045 C1167.5,34.120333 1165,33.899557 1162.5,33.67944 C1158.461,34.565194 1158.715,36.905832 1151.5,36.984492 C1149.303,34.995512 1147.427,36.041892 1143,35.331965 C1142.28717,35.196903 1124.86735,33.348934 1124.86735,33.348934 L1111.51993,35.10508 C1111.51993,35.10508 1097.63529,35.765284 1097,35.66247 C1094.544,35.265204 1092.979,33.392562 1091,33.01843 C1088.542,32.553739 1089.95,30.474862 1088.5,30.043883 C1086.834,29.933494 1085.166,29.823767 1083.5,29.713378 C1082.834,29.272484 1082.166,28.832252 1081.5,28.391357 C1079.392,28.011938 1079.076,29.150197 1078,29.382873 L1070.5,29.382873 C1069.287,29.628769 1068.176,30.66391 1066,30.374388 C1063.523,30.045205 1062.648,28.516949 1061,28.060853 C1058.5,28.17124 1056,28.280968 1053.5,28.391357 C1052.847,28.284934 1050.955,27.468587 1050.5,27.399842 C1048.004,27.023065 1044.029,28.36095 1042.5,28.721863 L1035.5,28.721863 C1032.116,29.383534 1027.419,29.439719 1024,30.043883 C1021,30.154272 1018,30.263999 1015,30.374388 C1012.924,30.909807 1009.666,32.309827 1007.5,32.687924 C1005.3878,33.056528 984.645566,34.009945 984.645566,34.009945 C984.645566,34.009945 961.85704,29.857365 960,30.043883 C955.363431,30.509824 950.223337,34.009945 950.223337,34.009945 C950.223337,34.009945 940.572932,34.275163 937,34.670955 C935.069284,34.884775 921.477689,32.357419 921.477689,32.357419 C921.477689,32.357419 906.058967,33.357327 903,34.009945 C900.205,34.606177 889.311,35.607607 885,35.66247 C884.918,35.58976 870.672001,29.747089 870.5,29.713378 C867.924,29.206383 860.849999,30.462303 857,30.043883 C855.256,29.854173 855.834,28.70137 853.5,29.052368 C853,29.382873 840,30.043883 840,30.043883 C835.857,32.438063 831.627,31.864305 828.999999,31.365904 L821,31.365904 C818.152001,30.769672 807.328,28.251223 805,30.704893 C803.825,31.714257 804.081,32.964227 803.5,33.67944 C799.3,32.60728 793.600999,35.191832 791.5,34.670955 C791.081037,34.567033 785.765046,34.941575 781.102732,34.34045 C776.440418,33.739325 773.972929,32.357419 773.972929,32.357419 C773.972929,32.357419 768.547377,33.214828 763.266422,34.00898 C758.714423,34.693513 754.269858,35.331048 753.5,35.331965 C749.615529,35.25392 738.9415,37.976008 738.9415,37.976008 C738.9415,37.976008 730.652695,37.863644 728,37.314997 C726.379,36.979864 726.316,35.560675 723.5,35.992977 C713.395263,36.502629 703.388708,36.413274 700,36.323482 C699.580605,36.43566 694.303328,36.663693 686.833907,36.920353 C683.895847,37.021309 680.618618,37.126693 677.164451,37.231199 C673.643632,37.337722 672.216673,39.73396 668.5,39.833033 C662.70055,39.987625 655.205259,37.12979 650,37.231199 C640.276841,37.420624 632.117973,38.185887 631,37.976008 C627.000001,36.874103 619.52066,39.943422 617.02066,39.833033 C614.589525,38.601829 606.288624,33.348934 606.288624,33.348934 L589.660326,35.315742 C589.660326,35.315742 581.953998,38.014912 579.049324,37.976008 C576.144651,37.937103 573.487546,35.138267 573,35.00146 C572.565964,34.879675 550.90245,35.37011 550.90245,35.37011 L535.177734,36.984492 C535.177734,36.984492 524.92625,32.319332 519.052909,30.76753 C513.027914,29.175662 502.134563,33.854834 493.987339,33.749657 C487.797526,33.669747 481.38916,39.906795 475.947266,39.833033 C470.505372,39.75927 449.069651,33.122835 448.5,33.01843 C444.334,32.90804 440.166,32.798313 436,32.687924 C435.049,32.500859 434.137,31.541072 433.5,31.365904 L425,31.365904 C423.456,32.663467 418.424,34.822327 416,35.331965 C414.514086,35.29916 396.860995,32.357419 396.860995,32.357419 C396.860995,32.357419 390.00176,37.186229 385.223912,37.170989 C380.756181,37.156737 373.000195,37.142487 363.666051,37.128234 C360.067898,37.12274 356.235236,37.117247 352.266022,37.111753 C346.574105,37.103873 334.636719,35.10508 334.636719,35.10508 C334.636719,35.10508 326.806941,33.111699 322.97905,33.106523 C321.754277,33.104867 320.538233,35.086242 319.333597,35.084585 C313.879393,35.077085 308.659043,33.747564 303.921191,33.740062 C291.171669,33.71987 279.061987,37.004718 278.145838,36.984492 C277.229689,36.964265 265.539,33.815608 262,32.687924 C259.459,31.878187 258.34,33.709847 256,33.348934 C252.661,32.834669 248.59,30.924349 244.5,30.704893 C242.69089,32.372698 233.15809,32.423442 223.41848,31.991745 C213.556232,31.554615 203.481932,30.62282 201,30.374388 C196.103,29.883919 192.704,33.527408 187,32.026914 C182.353,31.502733 179.567,34.107114 175,33.348934 C172.958,33.009837 171.719999,31.816713 170,31.365904 C168.655387,31.013613 150.409391,35.00146 150.409391,35.00146 C150.409391,35.00146 134.148738,30.449092 133.000001,30.043883 C132.333,29.602989 131.666999,29.162755 131,28.721863 L109,28.721863 C108.212,28.546034 107.289,27.575009 106.5,27.399842 C104.212,26.891525 100.708,26.925237 99,27.399842 C97.717,27.756127 95.279,29.064927 93.5,29.382873 C90.894,29.848885 89.9870001,28.827624 87.5,28.721863 C86.515,29.770225 85.223,30.496014 84,31.365904 C78.458,31.400937 73.294,30.957399 69,30.704893 C67.945,31.840509 67.311,32.295284 64.5,32.357419 C63.487,31.656748 63.029,31.48158 61,31.365904 C60.014,32.307183 59.494,32.362047 57,32.357419 C55.007,31.057212 53.357,32.020304 50,31.365904 C48.147,31.004993 42.788,28.063495 39.9999999,28.721863 C39.346,28.875878 37.982,29.952003 37,30.043883 C34.471,30.280525 33.179,27.686059 30,28.721863 C26.112,29.988358 23.286,32.458554 18,32.687924 C11.278,28.735083 5.213,33.376698 0,34.009945 L0,0" id="path-1" fill="#FFFFFF"></path>
            </g>
        </g>
    </g>
</svg>