<?xml version="1.0" encoding="UTF-8"?>
<svg width="13px" height="12px" viewBox="0 0 13 12" version="1.1" xmlns="http://www.w3.org/2000/svg" xmlns:xlink="http://www.w3.org/1999/xlink">
    <!-- Generator: Sketch 42 (36781) - http://www.bohemiancoding.com/sketch -->
    <title>Dog</title>
    <desc>Created with Sketch.</desc>
    <defs></defs>
    <g id="Page-1" stroke="none" stroke-width="1" fill="none" fill-rule="evenodd">
        <g id="donateToCharities" transform="translate(-168.000000, -242.000000)">
            <g id="Group-3" transform="translate(20.000000, 10.000000)">
                <g id="#1" transform="translate(15.000000, 222.000000)">
                    <g id="Dog" transform="translate(133.000000, 10.000000)">
                        <path d="M3.35831187,1.89843044 C2.76623593,1.05940499 2.00273605,0.27520544 1.25154622,0.352476243 C0.373275257,0.442819189 0.868248013,5.22409539 0.564941406,6.61332694 C0.2616348,8.00255848 0.142788303,9.37033307 0.142788303,9.37033307 L6.14006545,11.9484902 L6.270404,11.0032234 C6.270404,11.0032234 10.6860439,10.3329665 11.361534,9.65074753 C12.3925041,8.60950757 13.1898951,6.78692839 12.5628247,6.42554315 C11.9357542,6.06415792 9.12355937,6.0268881 8.75343252,5.9104732 C8.38330566,5.7940583 8.47320792,5.05550987 8.1800687,4.5575201 C8.06127722,4.35571516 7.42546967,4.19189255 6.71118415,4.06840858 C6.67279651,3.9420483 6.62941072,3.8011719 6.58189756,3.64992086 C6.33685844,2.86987562 6.14801322,2.43647173 5.80286224,1.67264052 C5.54254871,1.09655755 6.29005895,1.4351244 6.46375667,1.05411738 C6.50270492,0.968684137 5.07078452,0.554036621 4.71730316,0.665606709 C4.26608399,0.808025995 3.72258547,1.42503289 3.35831187,1.89843044 Z" id="Path-5" fill="#4A4A4A"></path>
                        <path d="M3.265439,1.26201151 L3.75431572,3.25098227 C3.75431572,3.25098227 4.52534821,3.16709602 4.96117222,3.25098227 C5.3705988,3.32978762 6.0676732,3.57377167 6.41327097,3.75502558 C6.75886874,3.9362795 6.80500453,3.87249909 6.80500453,3.87249909" id="Path-6" stroke="#FFFFFF" stroke-width="0.525"></path>
                    </g>
                </g>
            </g>
        </g>
    </g>
</svg>