<?xml version="1.0" encoding="UTF-8"?>
<svg width="13px" height="15px" viewBox="0 0 13 15" version="1.1" xmlns="http://www.w3.org/2000/svg" xmlns:xlink="http://www.w3.org/1999/xlink">
    <!-- Generator: Sketch 42 (36781) - http://www.bohemiancoding.com/sketch -->
    <title>Gavel</title>
    <desc>Created with Sketch.</desc>
    <defs></defs>
    <g id="Page-1" stroke="none" stroke-width="1" fill="none" fill-rule="evenodd">
        <g id="donateToCharities" transform="translate(-568.000000, -239.000000)" fill="#4A4A4A">
            <g id="Group-3" transform="translate(20.000000, 10.000000)">
                <g id="#2" transform="translate(376.000000, 221.000000)">
                    <path d="M174.454545,17.5384615 L174.454545,18.2307692 L174.584161,18.2307692 C174.86403,18.2307692 175.090909,18.4480661 175.090909,18.7386888 L175.090909,20.4920804 C175.090909,20.7725966 174.872159,21 174.584161,21 L170.506748,21 C170.226879,21 170,20.7827031 170,20.4920804 L170,18.7386888 C170,18.4581726 170.21875,18.2307692 170.506748,18.2307692 L170.664209,18.2307692 L170.677515,17.2383034 C170.677515,17.2383034 170.521213,16.9169361 170.544237,16.3847502 C170.56726,15.8525643 170.636364,15.5850616 170.636364,15.5850616 L170.636364,14.7692308 L170.506748,14.7692308 C170.226879,14.7692308 170,14.5519339 170,14.2613112 L170,12.5079196 C170,12.2274034 170.21875,12 170.506748,12 L174.584161,12 C174.86403,12 175.090909,12.2172969 175.090909,12.5079196 L175.090909,14.2613112 C175.090909,14.5418274 174.872159,14.7692308 174.584161,14.7692308 L174.454545,14.7692308 L174.454545,15.4615385 L183.256423,15.4615385 C183.667089,15.4615385 184,15.8045001 184,16.2113554 L184,16.7886446 C184,17.2027571 183.664371,17.5384615 183.256423,17.5384615 L174.454545,17.5384615 Z" id="Gavel" transform="translate(177.000000, 16.500000) rotate(-240.000000) translate(-177.000000, -16.500000) "></path>
                </g>
            </g>
        </g>
    </g>
</svg>