<?xml version="1.0" encoding="UTF-8"?>
<svg width="1304px" height="504px" viewBox="0 0 1304 504" version="1.1" xmlns="http://www.w3.org/2000/svg" xmlns:xlink="http://www.w3.org/1999/xlink">
    <!-- Generator: Sketch 43.2 (39069) - http://www.bohemiancoding.com/sketch -->
    <title>rip</title>
    <desc>Created with Sketch.</desc>
    <defs>
        <path d="M0,0.160912014 C0,-0.201140017 1300,0.160912014 1300,0.160912014 L1300,494.501362 C1298.021,494.335449 1296.81,493.503236 1294.5,493.840352 C1292.427,494.143095 1290.102,496.045482 1286.5,495.162372 C1285.13701,494.827901 1285.555,494.143095 1283.5,493.840352 C1278.61101,498.084699 1265.713,497.438231 1256.99999,496.153889 C1251.679,495.369269 1249.204,497.935311 1245,497.145404 C1242.85599,496.742849 1242.23,494.941595 1240,495.492877 C1237.152,495.979381 1237.046,497.048896 1233,497.145404 C1232.62,496.83539 1228.857,494.587955 1228.5,494.501362 C1225.916,493.874724 1221.938,495.15444 1220,494.170857 C1219.23499,493.782844 1218.01801,492.069505 1217.5,491.526816 C1214.162,492.846192 1204.635,494.639514 1198.49999,493.509846 C1196.221,493.090105 1194.973,490.85523 1191.5,491.526816 L1179,492.518331 C1176.646,492.973767 1172.109,494.112689 1170,494.501362 C1167.5,494.281245 1165,494.060469 1162.5,493.840352 C1158.461,494.726106 1158.715,497.066744 1151.5,497.145404 C1149.303,495.156424 1147.427,496.202804 1143,495.492877 C1142.28717,495.357815 1124.86735,493.509846 1124.86735,493.509846 L1111.51993,495.265992 C1111.51993,495.265992 1097.63529,495.926196 1097,495.823382 C1094.544,495.426116 1092.979,493.553474 1091,493.179342 C1088.542,492.714651 1089.95,490.635774 1088.5,490.204795 C1086.834,490.094406 1085.166,489.984679 1083.5,489.87429 C1082.834,489.433396 1082.166,488.993164 1081.5,488.552269 C1079.392,488.17285 1079.076,489.311109 1078,489.543785 L1070.5,489.543785 C1069.287,489.789681 1068.176,490.824822 1066,490.5353 C1063.523,490.206117 1062.648,488.677861 1061,488.221765 C1058.5,488.332152 1056,488.44188 1053.5,488.552269 C1052.847,488.445846 1050.955,487.629499 1050.5,487.560754 C1048.004,487.183977 1044.029,488.521862 1042.5,488.882775 L1035.5,488.882775 C1032.116,489.544446 1027.419,489.600631 1024,490.204795 C1021,490.315184 1018,490.424911 1015,490.5353 C1012.924,491.070719 1009.666,492.470739 1007.5,492.848836 C1005.3878,493.21744 984.645566,494.170857 984.645566,494.170857 C984.645566,494.170857 961.85704,490.018277 960,490.204795 C955.363431,490.670736 950.223337,494.170857 950.223337,494.170857 C950.223337,494.170857 940.572932,494.436075 937,494.831867 C935.069284,495.045687 921.477689,492.518331 921.477689,492.518331 C921.477689,492.518331 906.058967,493.518239 903,494.170857 C900.205,494.767089 889.311,495.768519 885,495.823382 C884.918,495.750672 870.672001,489.908001 870.5,489.87429 C867.924,489.367295 860.849999,490.623215 857,490.204795 C855.256,490.015085 855.834,488.862282 853.5,489.21328 C853,489.543785 840,490.204795 840,490.204795 C835.857,492.598975 831.627,492.025217 828.999999,491.526816 L821,491.526816 C818.152001,490.930584 807.328,488.412135 805,490.865805 C803.825,491.875169 804.081,493.125139 803.5,493.840352 C799.3,492.768192 793.600999,495.352744 791.5,494.831867 C791.081037,494.727945 785.765046,495.102487 781.102732,494.501362 C776.440418,493.900237 773.972929,492.518331 773.972929,492.518331 C773.972929,492.518331 768.547377,493.37574 763.266422,494.169892 C758.714423,494.854425 754.269858,495.49196 753.5,495.492877 C749.615529,495.414832 738.9415,498.13692 738.9415,498.13692 C738.9415,498.13692 730.652695,498.024556 728,497.475909 C726.379,497.140776 726.316,495.721587 723.5,496.153889 C713.395263,496.663541 703.388708,496.574186 700,496.484394 C699.580605,496.596572 694.303328,496.824605 686.833907,497.081265 C683.895847,497.182221 680.618618,497.287605 677.164451,497.392111 C673.643632,497.498634 672.216673,499.894872 668.5,499.993945 C662.70055,500.148537 655.205259,497.290702 650,497.392111 C640.276841,497.581536 632.117973,498.346799 631,498.13692 C627.000001,497.035015 619.52066,500.104334 617.02066,499.993945 C614.589525,498.762741 606.288624,493.509846 606.288624,493.509846 L589.660326,495.476654 C589.660326,495.476654 581.953998,498.175824 579.049324,498.13692 C576.144651,498.098015 573.487546,495.299179 573,495.162372 C572.565964,495.040587 550.90245,495.531022 550.90245,495.531022 L535.177734,497.145404 C535.177734,497.145404 524.92625,492.480244 519.052909,490.928442 C513.027914,489.336574 502.134563,494.015746 493.987339,493.910569 C487.797526,493.830659 481.38916,500.067707 475.947266,499.993945 C470.505372,499.920182 449.069651,493.283747 448.5,493.179342 C444.334,493.068952 440.166,492.959225 436,492.848836 C435.049,492.661771 434.137,491.701984 433.5,491.526816 L425,491.526816 C423.456,492.824379 418.424,494.983239 416,495.492877 C414.514086,495.460072 396.860995,492.518331 396.860995,492.518331 C396.860995,492.518331 390.00176,497.347141 385.223912,497.331901 C380.756181,497.317649 373.000195,497.303399 363.666051,497.289146 C360.067898,497.283652 356.235236,497.278159 352.266022,497.272665 C346.574105,497.264785 334.636719,495.265992 334.636719,495.265992 C334.636719,495.265992 326.806941,493.272611 322.97905,493.267435 C321.754277,493.265779 320.538233,495.247154 319.333597,495.245497 C313.879393,495.237997 308.659043,493.908476 303.921191,493.900974 C291.171669,493.880782 279.061987,497.16563 278.145838,497.145404 C277.229689,497.125177 265.539,493.97652 262,492.848836 C259.459,492.039099 258.34,493.870759 256,493.509846 C252.661,492.995581 248.59,491.085261 244.5,490.865805 C242.69089,492.53361 233.15809,492.584354 223.41848,492.152657 C213.556232,491.715527 203.481932,490.783732 201,490.5353 C196.103,490.044831 192.704,493.68832 187,492.187826 C182.353,491.663645 179.567,494.268026 175,493.509846 C172.958,493.170749 171.719999,491.977625 170,491.526816 C168.655387,491.174525 150.409391,495.162372 150.409391,495.162372 C150.409391,495.162372 134.148738,490.610004 133.000001,490.204795 C132.333,489.763901 131.666999,489.323667 131,488.882775 L109,488.882775 C108.212,488.706946 107.289,487.735921 106.5,487.560754 C104.212,487.052437 100.708,487.086149 99,487.560754 C97.717,487.917039 95.279,489.225839 93.5,489.543785 C90.894,490.009797 89.9870001,488.988536 87.5,488.882775 C86.515,489.931137 85.223,490.656926 84,491.526816 C78.458,491.561849 73.294,491.118311 69,490.865805 C67.945,492.001421 67.311,492.456196 64.5,492.518331 C63.487,491.81766 63.029,491.642492 61,491.526816 C60.014,492.468095 59.494,492.522959 57,492.518331 C55.007,491.218124 53.357,492.181216 50,491.526816 C48.147,491.165905 42.788,488.224407 39.9999999,488.882775 C39.346,489.03679 37.982,490.112915 37,490.204795 C34.471,490.441437 33.179,487.846971 30,488.882775 C26.112,490.14927 23.286,492.619466 18,492.848836 C11.278,488.895995 5.213,493.53761 0,494.170857 L0,0.160912014 Z" id="path-1"></path>
        <filter x="-0.3%" y="-0.5%" width="100.5%" height="101.4%" filterUnits="objectBoundingBox" id="filter-2">
            <feOffset dx="0" dy="1" in="SourceAlpha" result="shadowOffsetOuter1"></feOffset>
            <feGaussianBlur stdDeviation="1" in="shadowOffsetOuter1" result="shadowBlurOuter1"></feGaussianBlur>
            <feColorMatrix values="0 0 0 0 0   0 0 0 0 0   0 0 0 0 0  0 0 0 0.5 0" type="matrix" in="shadowBlurOuter1"></feColorMatrix>
        </filter>
    </defs>
    <g id="Page-1" stroke="none" stroke-width="1" fill="none" fill-rule="evenodd">
        <g id="Letter" transform="translate(-56.000000, -51.000000)" fill-rule="nonzero">
            <g id="rip" transform="translate(58.000000, 52.000000)">
                <g id="path-1">
                    <use fill="black" fill-opacity="1" filter="url(#filter-2)" xlink:href="#path-1"></use>
                    <use fill="#FFFFFF" fill-rule="evenodd" xlink:href="#path-1"></use>
                </g>
            </g>
        </g>
    </g>
</svg>