<?xml version="1.0" encoding="UTF-8"?>
<svg width="72px" height="39px" viewBox="0 0 72 39" version="1.1" xmlns="http://www.w3.org/2000/svg" xmlns:xlink="http://www.w3.org/1999/xlink">
    <!-- Generator: Sketch 43.2 (39069) - http://www.bohemiancoding.com/sketch -->
    <title>signature</title>
    <desc>Created with Sketch.</desc>
    <defs></defs>
    <g id="Page-1" stroke="none" stroke-width="1" fill="none" fill-rule="evenodd">
        <g id="Consolidated-2.7" transform="translate(-587.000000, -90.000000)">
            <g id="signature" transform="translate(587.000000, 90.000000)">
                <text id="Donald-J.-Trump" font-family="CourierNewPSMT, Courier New" font-size="8" font-weight="normal" fill="#000000">
                    <tspan x="0" y="37">Donald J. Trump</tspan>
                </text>
                <path d="M1.46769122,22.022824 C1.46769122,22.022824 2.28689593,19.9856386 2.7574495,17.9215871 C3.19384815,16.0073538 2.89271819,13.3510747 3.13505444,13.3510747 C3.63869349,13.3510747 4.29041849,26.2990768 6.36696726,25.0932604 C8.44351603,23.887444 9.26538508,0.537331016 8.40275634,0.537331016 C7.54012759,0.537331016 4.10897668,17.2272547 3.89743329,18.5236631 C3.68588991,19.8200714 5.2086497,23.8718324 5.2086497,23.8718324 L10.0313688,13.0423389" id="D" stroke="#4A4A4A"></path>
                <path d="M10.5388565,12.9740349 C9.12247243,13.243796 9.37086397,21.6376379 9.37086397,21.6376379 C9.37086397,21.6376379 9.60647917,25.3494529 10.5388565,24.722886 C11.4712339,24.0963191 12.4779412,21.651698 12.4779412,18.7355239 C12.4779412,15.8193498 11.9552407,12.7042739 10.5388565,12.9740349 Z" id="O" stroke="#4A4A4A"></path>
                <path d="M9.51309743,17.7876838 C9.51309743,17.7876838 10.4248396,23.5160003 11.7477022,22.872932 C13.0705648,22.2298636 14.1461397,13.5958248 14.1461397,13.3871783 C14.1461397,12.9283088 13.2307443,23.712437 14.1461397,24.0188419 C15.0615351,24.3252468 16.6292814,15.1994407 17.3373162,15 C17.5036342,14.9531512 17.6355514,16.7901162 17.5994945,18.6996648 C17.5634375,20.6092134 18.9829963,24.8049173 16.9241728,22.872932 C16.9241728,22.872932 19.5955882,13.745864 21.3430607,13.745864 C22.2736693,13.745864 22.1124046,18.5795242 21.4567797,21.2004845 C20.8011549,23.8214448 20.0973289,23.2304433 20.7477188,23.3006045 C21.3981087,23.3707656 20.3169957,22.706229 19.7763247,21.2004845 C19.2356538,19.69474 19.2228261,16.498981 19.2228261,16.498981" id="NA" stroke="#4A4A4A"></path>
                <path d="M20.9330842,23.3840014 C20.9330842,23.3840014 21.486637,24.1983527 21.765625,24.234375 C22.044613,24.2703973 22.9797894,23.6482677 22.9797894,23.6482677 L25.4762228,8.73471467 C25.4762228,8.73471467 22.9736753,23.4850543 23.5565557,24.4181386 C24.1394361,25.3512228 25.1616912,26.2288759 26.6492867,23.0383832 C28.1368822,19.8478904 28.5544563,16.0460468 28.3877378,15.8476563 C28.2210192,15.6492657 23.3371264,24.2946671 26.3469769,22.1863111 C29.3568274,20.0779552 36.2824389,7.5592731 36.2824389,7.5592731 C36.2824389,7.5592731 37.1060228,13.971532 37.1873302,17.3924932 C37.2686376,20.8134544 37.1482677,24.0100204 36.2824389,24.6618546 C35.4166101,25.3136889 33.8242019,22.127204 31.852072,21.2863451 C29.8799422,20.4454862 27.8991168,21.2863451 27.8991168,21.2863451 C27.8991168,21.2863451 29.6828404,20.2140909 30.0497622,19.647928 C30.4166841,19.0817651 34.9383492,10.4247622 34.9383492,10.4247622" id="LDT" stroke="#4A4A4A"></path>
                <path d="M31.3299932,21.2423573 C31.3299932,21.2423573 35.3004943,19.7979189 38.9891304,14.4911685 C42.6777666,9.18441805 43.8133492,2.96824049 44.6097147,1.71993886 C45.4060802,0.471637228 42.7575538,10.1956063 42.5782948,14.4911685 C42.3990358,18.7867307 44.6097147,24.3499099 44.6097147,24.3499099" id="R" stroke="#4A4A4A"></path>
                <path d="M36.4622962,22.8065557 C36.4622962,22.8065557 41.0829499,19.1908914 43.0703125,16.7970448 C45.0576751,14.4031983 45.6669497,10.6311141 46.1858016,11.0942595 C46.7046535,11.5574049 44.264606,23.8155571 44.6861413,24.2306386 C45.1076766,24.6457201 48.8928329,12.6971807 49.6876698,12.6971807 C50.4825068,12.6971807 48.6160705,20.9893329 49.4734075,20.9893329 C50.3307444,20.9893329 53.9509815,11.6938578 54.734375,11.3131793 C55.5177685,10.9325009 52.062711,18.9099235 52.6460598,19.2820992 C53.2294085,19.6542748 56.5350762,13.0218294 57.2936481,12.9459918 C58.05222,12.8701543 54.5111506,19.1370069 55.5806726,19.0550272 C56.6501945,18.9730474 61.6694973,13.6428329 61.6694973,13.6428329" id="UM" stroke="#4A4A4A"></path>
                <path d="M57.7124299,29.4596543 C57.7124299,29.4596543 57.0199113,29.9159565 57.0199113,28.9851003 C57.0199113,28.0542441 59.1528182,19.5877699 61.3398438,15 C63.326039,10.8335159 69.3706521,1.77654701 70.8148777,1.63977582 C72.2591034,1.50300462 70.5635864,9.20987016 69.6234715,14.2155231 C68.5252829,20.0628407 66.9260983,22.3465041 66.7861753,23.0876359 C66.4591209,24.819948 68.6218206,15.1374157 68.4034661,15 C68.1851116,14.8625843 66.531713,20.8469769 65.7459239,20.7235054 C64.9601349,20.600034 67.5958975,14.7756151 66.636431,15 C65.6769644,15.2243849 63.1181952,21.3047231 62.7066916,21.4342731 C62.2951879,21.5638231 65.5379461,15.0175855 64.9601349,14.7777099 C64.3823236,14.5378342 61.1310686,20.3670838 60.6971807,20.600034 C60.4748283,20.7194128 60.2691927,19.2513018 60.4920177,17.7860054 C60.7148426,16.320709 61.3398438,15 61.3398438,15" id="P" stroke="#4A4A4A"></path>
            </g>
        </g>
    </g>
</svg>