<?xml version="1.0" encoding="UTF-8"?>
<svg width="11px" height="16px" viewBox="0 0 11 16" version="1.1" xmlns="http://www.w3.org/2000/svg" xmlns:xlink="http://www.w3.org/1999/xlink">
    <!-- Generator: Sketch 42 (36781) - http://www.bohemiancoding.com/sketch -->
    <title>Tree</title>
    <desc>Created with Sketch.</desc>
    <defs></defs>
    <g id="Page-1" stroke="none" stroke-width="1" fill="none" fill-rule="evenodd">
        <g id="donateToCharities" transform="translate(-170.000000, -511.000000)">
            <g id="Group-3" transform="translate(20.000000, 10.000000)">
                <g id="#3" transform="translate(15.000000, 492.000000)">
                    <g id="Tree" transform="translate(135.000000, 9.000000)">
                        <path d="M4.60085484,8.82913075 C4.47698017,8.83931014 4.17735335,8.55930597 4.06427892,8.55010931 C3.57150478,8.5100306 3.57019982,8.22439706 3.26443423,7.91875112 C3.01124179,7.66565775 1.84490828,8.25681944 1.68301566,7.91875112 C1.5372272,7.61431189 1.49915149,7.11855347 1.44564652,6.76571434 C1.41846473,6.58646371 1.78547885,5.85578513 1.78547885,5.66782548 C1.78547885,5.49536277 0.95296593,5.36061668 0.712136485,4.77258604 C0.471307039,4.18455539 0.905777682,3.19929889 1.00674065,2.94366127 C1.11783137,2.66238023 0.673758991,2.79596383 0.882668356,2.44320122 C1.09157772,2.0904386 1.60312367,1.75995518 1.99216806,1.69667155 C2.09590565,1.77516079 2.48083355,0.706171076 2.79327381,0.700886895 C3.10571407,0.695602715 3.42898812,1.07474546 3.64575309,0.541552273 C3.73560566,0.320535099 5.30388728,0.97667556 5.77041059,0.481635908 C6.14097511,1.5000608 6.79097784,0.856849786 7.15487088,1.04190599 C7.45747711,0.659655678 8.74890877,0.897916293 9.02901074,1.27858199 C9.26437636,1.59844987 9.45899353,3.31937226 9.92254909,3.41282968 C10.0090028,3.72179117 10.1100839,3.67923518 10.1100839,4.02028722 C10.645051,4.49564508 10.7847514,5.80831287 9.92254909,5.62840253 C10.5257552,7.02634288 8.79936403,6.43105967 9.19830947,6.70256237 C9.20605178,6.96686735 9.10394408,7.37902149 9.02901074,7.45768463 C8.95407739,7.53634778 8.47871325,7.28778121 8.43788935,7.45768463 C8.36943478,7.74258306 8.66692956,7.78022136 8.5213494,8.23657861 C8.37576924,8.69293587 7.64605638,8.39558824 7.47075331,8.39744787 C7.24549446,8.39983744 7.04383343,8.71058504 6.58112493,8.71012909 C6.53494792,8.71008359 6.48906585,8.70693302 6.443705,8.70129761 L6.443705,13.8924122 C6.443705,13.8924122 7.58726304,14.5837802 7.36440569,14.9137177 C7.14154833,15.2436553 6.22868996,14.9137177 6.22868996,14.9137177 L5.53508085,15.4149692 L4.95273522,14.9137177 C4.95273522,14.9137177 3.82410838,15.1018375 3.68074856,14.9137177 C3.53738873,14.725598 4.60085484,13.8924122 4.60085484,13.8924122 L4.60085484,8.82913075 Z" id="Combined-Shape" fill="#4A4A4A"></path>
                        <path d="M2.95498217,9.31981304 C2.95498217,9.31981304 3.48352364,8.67748283 3.71232828,8.75993072 C3.74918473,8.77321164 4.64022702,9.07285942 4.74791676,9.11453825 C4.8556065,9.15621707 5.29244421,9.6317633 5.71290944,9.6317633 C6.37237528,9.6317633 6.60866347,8.89827537 6.60866347,8.89827537 C6.60866347,8.89827537 6.69264711,8.96164828 6.82511942,8.96164828 C6.95759172,8.96164828 7.79362859,8.75993072 7.79362859,8.75993072" id="Outline-under-tree" stroke="#FFFFFF" stroke-width="0.5"></path>
                    </g>
                </g>
            </g>
        </g>
    </g>
</svg>