<?xml version="1.0" encoding="UTF-8"?>
<svg width="86px" height="36px" viewBox="0 0 86 36" version="1.1" xmlns="http://www.w3.org/2000/svg" xmlns:xlink="http://www.w3.org/1999/xlink">
    <!-- Generator: Sketch 46.2 (44496) - http://www.bohemiancoding.com/sketch -->
    <title>Stel</title>
    <desc>Created with Sketch.</desc>
    <defs></defs>
    <g id="Page-1" stroke="none" stroke-width="1" fill="none" fill-rule="evenodd">
        <g id="v1.0---Login" transform="translate(-19.000000, -22.000000)">
            <g id="Navigation" transform="translate(20.000000, 19.000000)">
                <g id="Stel" transform="translate(0.000000, 3.000000)">
                    <g id="Stel-icon" transform="translate(2.553515, 2.442425)" fill="#1F79E2">
                        <path d="M6.45722635,8.07406894 C8.61058317,5.45167012 12.3708528,0.274640625 12.3708528,0.274640625 C12.3708528,0.274640625 16.0730447,5.40575839 18.2080309,8.00520135 C19.6922196,9.81226864 23.1008786,13.5788742 23.1008786,13.5788742 L24.7243653,13.3758097 L12.3601842,30.972375 L0.0173402913,13.3758097 L1.64437601,13.5788742 C1.64437601,13.5788742 4.99222092,9.85818037 6.45722635,8.07406894 Z" id="Stel-logo-Copy-8"></path>
                    </g>
                    <path d="M14.8465406,0.288257619 C14.8465406,0.288257619 10.8444485,5.68541867 8.76367208,8.29499142 C6.97296999,10.540772 3.16344304,15.0272614 3.16344304,15.0272614 L0.0564789191,14.8179587 L14.8465406,35.7802449 L29.6592638,14.8179587 L26.4482716,15.0272614 C26.4482716,15.0272614 22.5342804,10.2462451 20.9709271,8.29499142 C18.6441494,5.39089178 14.8465406,0.288257619 14.8465406,0.288257619 Z" id="Path-2" stroke="#1F79E2" stroke-width="0.59535"></path>
                    <path d="M42.06,25.56 C42.5800026,26.3400039 43.244996,26.9149981 44.055,27.285 C44.8650041,27.6550018 45.6999957,27.84 46.56,27.84 C47.0400024,27.84 47.5299975,27.7650007 48.03,27.615 C48.5300025,27.4649993 48.984998,27.2400015 49.395,26.94 C49.805002,26.6399985 50.1399987,26.2700022 50.4,25.83 C50.6600013,25.3899978 50.79,24.8800029 50.79,24.3 C50.79,23.4799959 50.5300026,22.8550022 50.01,22.425 C49.4899974,21.9949979 48.8450039,21.6350015 48.075,21.345 C47.3049962,21.0549986 46.4650046,20.7750014 45.555,20.505 C44.6449955,20.2349987 43.8050039,19.8600024 43.035,19.38 C42.2649962,18.8999976 41.6200026,18.2550041 41.1,17.445 C40.5799974,16.634996 40.32,15.5400069 40.32,14.16 C40.32,13.5399969 40.4549987,12.8800035 40.725,12.18 C40.9950014,11.4799965 41.4199971,10.8400029 42,10.26 C42.5800029,9.6799971 43.3249955,9.19500195 44.235,8.805 C45.1450046,8.41499805 46.2399936,8.22 47.52,8.22 C48.6800058,8.22 49.7899947,8.3799984 50.85,8.7 C51.9100053,9.0200016 52.839996,9.6699951 53.64,10.65 L51.3,12.78 C50.9399982,12.2199972 50.4300033,11.7700017 49.77,11.43 C49.1099967,11.0899983 48.3600042,10.92 47.52,10.92 C46.719996,10.92 46.0550027,11.024999 45.525,11.235 C44.9949974,11.445001 44.5700016,11.7149984 44.25,12.045 C43.9299984,12.3750017 43.7050007,12.7299981 43.575,13.11 C43.4449994,13.4900019 43.38,13.8399984 43.38,14.16 C43.38,15.0600045 43.6399974,15.7499976 44.16,16.23 C44.6800026,16.7100024 45.3249962,17.0999985 46.095,17.4 C46.8650039,17.7000015 47.7049954,17.9699988 48.615,18.21 C49.5250046,18.4500012 50.3649962,18.7849978 51.135,19.215 C51.9050038,19.6450021 52.5499974,20.2249963 53.07,20.955 C53.5900026,21.6850036 53.85,22.6899936 53.85,23.97 C53.85,24.9900051 53.6550019,25.9099959 53.265,26.73 C52.8749981,27.5500041 52.3500033,28.2399972 51.69,28.8 C51.0299967,29.3600028 50.2500045,29.7899985 49.35,30.09 C48.4499955,30.3900015 47.4900051,30.54 46.47,30.54 C45.1099932,30.54 43.8200061,30.3000024 42.6,29.82 C41.3799939,29.3399976 40.4100036,28.600005 39.69,27.6 L42.06,25.56 Z M63.8092308,18.12 L59.9392308,18.12 L59.9392308,24.57 C59.9392308,24.970002 59.9492307,25.3649981 59.9692308,25.755 C59.9892309,26.145002 60.0642302,26.4949984 60.1942308,26.805 C60.3242315,27.1150015 60.5242295,27.364999 60.7942308,27.555 C61.0642322,27.7450009 61.4592282,27.84 61.9792308,27.84 C62.2992324,27.84 62.6292291,27.8100003 62.9692308,27.75 C63.3092325,27.6899997 63.6192294,27.5800008 63.8992308,27.42 L63.8992308,29.88 C63.5792292,30.0600009 63.1642334,30.1849997 62.6542308,30.255 C62.1442283,30.3250003 61.7492322,30.36 61.4692308,30.36 C60.4292256,30.36 59.6242337,30.2150014 59.0542308,29.925 C58.484228,29.6349985 58.0642322,29.2600023 57.7942308,28.8 C57.5242295,28.3399977 57.3642311,27.8250028 57.3142308,27.255 C57.2642306,26.6849972 57.2392308,26.1100029 57.2392308,25.53 L57.2392308,18.12 L54.1192308,18.12 L54.1192308,15.78 L57.2392308,15.78 L57.2392308,11.79 L59.9392308,11.79 L59.9392308,15.78 L63.8092308,15.78 L63.8092308,18.12 Z M68.0984617,23.88 C68.0984617,24.5000031 68.2334603,25.0649974 68.5034617,25.575 C68.773463,26.0850025 69.1284595,26.5199982 69.5684617,26.88 C70.0084639,27.2400018 70.5184588,27.519999 71.0984617,27.72 C71.6784646,27.920001 72.2784586,28.02 72.8984617,28.02 C73.7384659,28.02 74.4684586,27.825002 75.0884617,27.435 C75.7084648,27.0449981 76.2784591,26.5300032 76.7984617,25.89 L78.8384617,27.45 C77.3384542,29.3900097 75.2384752,30.36 72.5384617,30.36 C71.4184561,30.36 70.4034662,30.1700019 69.4934617,29.79 C68.5834571,29.4099981 67.8134648,28.8850033 67.1834617,28.215 C66.5534585,27.5449967 66.0684634,26.7550046 65.7284617,25.845 C65.38846,24.9349954 65.2184617,23.9500053 65.2184617,22.89 C65.2184617,21.8299947 65.4034598,20.8450046 65.7734617,19.935 C66.1434635,19.0249955 66.6534584,18.2350033 67.3034617,17.565 C67.9534649,16.8949967 68.7284572,16.3700019 69.6284617,15.99 C70.5284662,15.6099981 71.5084564,15.42 72.5684617,15.42 C73.828468,15.42 74.8934573,15.6399978 75.7634617,16.08 C76.633466,16.5200022 77.3484589,17.0949965 77.9084617,17.805 C78.4684645,18.5150036 78.8734604,19.3149955 79.1234617,20.205 C79.3734629,21.0950044 79.4984617,21.9999954 79.4984617,22.92 L79.4984617,23.88 L68.0984617,23.88 Z M76.6184617,21.72 C76.5984616,21.119997 76.5034625,20.5700025 76.3334617,20.07 C76.1634608,19.5699975 75.9084634,19.1350019 75.5684617,18.765 C75.22846,18.3949981 74.8034642,18.105001 74.2934617,17.895 C73.7834591,17.684999 73.1884651,17.58 72.5084617,17.58 C71.8484584,17.58 71.2434644,17.7049987 70.6934617,17.955 C70.1434589,18.2050012 69.6784636,18.529998 69.2984617,18.93 C68.9184598,19.330002 68.6234627,19.7749976 68.4134617,20.265 C68.2034606,20.7550024 68.0984617,21.2399976 68.0984617,21.72 L76.6184617,21.72 Z M81.7176925,7.32 L84.4176925,7.32 L84.4176925,30 L81.7176925,30 L81.7176925,7.32 Z" fill="#4A4A4A"></path>
                </g>
            </g>
        </g>
    </g>
</svg>